<svg width="283" height="67" viewBox="0 0 283 67" fill="none" xmlns="http://www.w3.org/2000/svg">
<rect y="25.1013" width="35.264" height="32.3253" rx="3.68068" fill="white"/>
<path d="M41.4352 35.8568C41.4352 34.7558 42.0495 33.7467 43.0275 33.2411L54.4766 27.3225C56.4365 26.3093 58.7733 27.7319 58.7733 29.9382V53.1523C58.7733 55.2152 56.707 56.6386 54.7795 55.9036L43.3305 51.5374C42.1893 51.1022 41.4352 50.0076 41.4352 48.7862V35.8568Z" fill="white"/>
<path d="M36.8802 29.8032C36.8802 28.9917 37.5381 28.3339 38.3496 28.3339V28.3339C39.1611 28.3339 39.8189 28.9917 39.8189 29.8032V53.1656C39.8189 53.9771 39.1611 54.6349 38.3496 54.6349V54.6349C37.5381 54.6349 36.8802 53.9771 36.8802 53.1656V29.8032Z" fill="white"/>
<circle cx="28.0642" cy="14.816" r="6.60759" stroke="white" stroke-width="4.41681"/>
<path d="M15.4236 14.816C15.4236 18.4653 12.4653 21.4236 8.81599 21.4236C5.16672 21.4236 2.20841 18.4653 2.20841 14.816C2.20841 11.1667 5.16672 8.20841 8.81599 8.20841C12.4653 8.20841 15.4236 11.1667 15.4236 14.816Z" stroke="white" stroke-width="4.41681"/>
<path d="M66.7301 55.4259H73.581V42.6475H80.8196C89.554 42.6475 94.2443 37.4032 94.2443 30.1276C94.2443 22.9075 89.6094 17.6077 80.9119 17.6077H66.7301V55.4259ZM73.581 37.0154V23.3322H79.8594C84.9929 23.3322 87.2642 26.1021 87.2642 30.1276C87.2642 34.1532 84.9929 37.0154 79.8963 37.0154H73.581ZM111.01 55.9799C117.621 55.9799 122.163 52.7484 123.345 47.818L117.104 47.1163C116.199 49.5168 113.983 50.7725 111.102 50.7725C106.781 50.7725 103.919 47.9288 103.864 43.0722H123.622V41.0225C123.622 31.0694 117.639 26.693 110.659 26.693C102.534 26.693 97.2345 32.6575 97.2345 41.4103C97.2345 50.3109 102.46 55.9799 111.01 55.9799ZM103.882 38.5666C104.085 34.9472 106.763 31.9004 110.752 31.9004C114.592 31.9004 117.178 34.7072 117.215 38.5666H103.882ZM134.922 17.6077H128.237V55.4259H134.922V17.6077ZM140.756 55.4259H147.441V27.0623H140.756V55.4259ZM144.117 23.0367C146.24 23.0367 147.976 21.4117 147.976 19.4174C147.976 17.4046 146.24 15.7796 144.117 15.7796C141.975 15.7796 140.239 17.4046 140.239 19.4174C140.239 21.4117 141.975 23.0367 144.117 23.0367ZM175.692 34.5594C174.769 29.7583 170.928 26.693 164.28 26.693C157.448 26.693 152.795 30.0538 152.813 35.2981C152.795 39.4344 155.343 42.1674 160.79 43.2938L165.628 44.3094C168.232 44.8819 169.451 45.9344 169.451 47.541C169.451 49.4799 167.346 50.9387 164.17 50.9387C161.104 50.9387 159.11 49.6092 158.537 47.0609L152.019 47.6887C152.85 52.8961 157.226 55.9799 164.188 55.9799C171.279 55.9799 176.283 52.3052 176.302 46.9316C176.283 42.8876 173.679 40.4131 168.324 39.2498L163.486 38.2157C160.606 37.5694 159.461 36.5722 159.479 34.9288C159.461 33.0083 161.584 31.6788 164.373 31.6788C167.456 31.6788 169.081 33.3592 169.599 35.2242L175.692 34.5594ZM180.774 66.0623H187.458V50.9572H187.735C188.788 53.0254 190.985 55.9245 195.86 55.9245C202.545 55.9245 207.549 50.6248 207.549 41.281C207.549 31.8265 202.397 26.693 195.842 26.693C190.838 26.693 188.751 29.7029 187.735 31.7526H187.348V27.0623H180.774V66.0623ZM187.329 41.2441C187.329 35.7413 189.693 32.1773 193.995 32.1773C198.446 32.1773 200.735 35.9629 200.735 41.2441C200.735 46.5623 198.409 50.4401 193.995 50.4401C189.73 50.4401 187.329 46.7469 187.329 41.2441ZM218.918 17.6077H212.234V55.4259H218.918V17.6077ZM242.83 43.4969C242.83 47.818 239.747 49.96 236.792 49.96C233.579 49.96 231.437 47.6887 231.437 44.0879V27.0623H224.752V45.1219C224.752 51.9359 228.63 55.7952 234.207 55.7952C238.454 55.7952 241.445 53.5609 242.738 50.3847H243.034V55.4259H249.515V27.0623H242.83V43.4969ZM277.767 34.5594C276.843 29.7583 273.002 26.693 266.355 26.693C259.522 26.693 254.869 30.0538 254.887 35.2981C254.869 39.4344 257.417 42.1674 262.865 43.2938L267.703 44.3094C270.306 44.8819 271.525 45.9344 271.525 47.541C271.525 49.4799 269.42 50.9387 266.244 50.9387C263.179 50.9387 261.184 49.6092 260.612 47.0609L254.093 47.6887C254.924 52.8961 259.301 55.9799 266.262 55.9799C273.353 55.9799 278.358 52.3052 278.376 46.9316C278.358 42.8876 275.754 40.4131 270.399 39.2498L265.561 38.2157C262.68 37.5694 261.535 36.5722 261.554 34.9288C261.535 33.0083 263.659 31.6788 266.447 31.6788C269.531 31.6788 271.156 33.3592 271.673 35.2242L277.767 34.5594Z" fill="white"/>
</svg>
